<mxfile host="app.diagrams.net" modified="2024-04-26T15:24:13.584Z" agent="Mozilla/5.0 (Windows NT 10.0; Win64; x64; rv:109.0) Gecko/20100101 Firefox/110.0" etag="8wrFTrECLUnTXCkxx0xj" version="24.3.0" type="device">
  <diagram id="C5RBs43oDa-KdzZeNtuy" name="Page-1">
    <mxGraphModel dx="2261" dy="749" grid="1" gridSize="10" guides="1" tooltips="1" connect="1" arrows="1" fold="1" page="1" pageScale="1" pageWidth="827" pageHeight="1169" math="0" shadow="0">
      <root>
        <mxCell id="WIyWlLk6GJQsqaUBKTNV-0" />
        <mxCell id="WIyWlLk6GJQsqaUBKTNV-1" parent="WIyWlLk6GJQsqaUBKTNV-0" />
        <mxCell id="zkfFHV4jXpPFQw0GAbJ--6" value="BasketballDataImporter" style="swimlane;fontStyle=0;align=center;verticalAlign=top;childLayout=stackLayout;horizontal=1;startSize=26;horizontalStack=0;resizeParent=1;resizeLast=0;collapsible=1;marginBottom=0;rounded=0;shadow=0;strokeWidth=1;fillColor=#ffe6cc;strokeColor=#d79b00;" parent="WIyWlLk6GJQsqaUBKTNV-1" vertex="1">
          <mxGeometry x="59" y="210" width="280" height="424" as="geometry">
            <mxRectangle x="130" y="380" width="160" height="26" as="alternateBounds" />
          </mxGeometry>
        </mxCell>
        <mxCell id="zkfFHV4jXpPFQw0GAbJ--7" value="- _connectionString: string" style="text;align=left;verticalAlign=top;spacingLeft=4;spacingRight=4;overflow=hidden;rotatable=0;points=[[0,0.5],[1,0.5]];portConstraint=eastwest;" parent="zkfFHV4jXpPFQw0GAbJ--6" vertex="1">
          <mxGeometry y="26" width="280" height="26" as="geometry" />
        </mxCell>
        <mxCell id="zkfFHV4jXpPFQw0GAbJ--8" value="- _fantasyDataClient: CBBv3StatsClient" style="text;align=left;verticalAlign=top;spacingLeft=4;spacingRight=4;overflow=hidden;rotatable=0;points=[[0,0.5],[1,0.5]];portConstraint=eastwest;rounded=0;shadow=0;html=0;" parent="zkfFHV4jXpPFQw0GAbJ--6" vertex="1">
          <mxGeometry y="52" width="280" height="26" as="geometry" />
        </mxCell>
        <mxCell id="zkfFHV4jXpPFQw0GAbJ--9" value="" style="line;html=1;strokeWidth=1;align=left;verticalAlign=middle;spacingTop=-1;spacingLeft=3;spacingRight=3;rotatable=0;labelPosition=right;points=[];portConstraint=eastwest;" parent="zkfFHV4jXpPFQw0GAbJ--6" vertex="1">
          <mxGeometry y="78" width="280" height="8" as="geometry" />
        </mxCell>
        <mxCell id="zkfFHV4jXpPFQw0GAbJ--10" value="+ InitializeDatabaseSchemaAsync: Task" style="text;align=left;verticalAlign=top;spacingLeft=4;spacingRight=4;overflow=hidden;rotatable=0;points=[[0,0.5],[1,0.5]];portConstraint=eastwest;fontStyle=0" parent="zkfFHV4jXpPFQw0GAbJ--6" vertex="1">
          <mxGeometry y="86" width="280" height="26" as="geometry" />
        </mxCell>
        <mxCell id="zkfFHV4jXpPFQw0GAbJ--11" value="+Import PlayersIntoTables(): Task" style="text;align=left;verticalAlign=top;spacingLeft=4;spacingRight=4;overflow=hidden;rotatable=0;points=[[0,0.5],[1,0.5]];portConstraint=eastwest;" parent="zkfFHV4jXpPFQw0GAbJ--6" vertex="1">
          <mxGeometry y="112" width="280" height="26" as="geometry" />
        </mxCell>
        <mxCell id="qUOKgKDQeOvGuODRQWnc-0" value="+InsertConference(): Task" style="text;align=left;verticalAlign=top;spacingLeft=4;spacingRight=4;overflow=hidden;rotatable=0;points=[[0,0.5],[1,0.5]];portConstraint=eastwest;" parent="zkfFHV4jXpPFQw0GAbJ--6" vertex="1">
          <mxGeometry y="138" width="280" height="26" as="geometry" />
        </mxCell>
        <mxCell id="qUOKgKDQeOvGuODRQWnc-1" value="-InsertConference(conferenceName: string): Task&lt;int&gt;" style="text;align=left;verticalAlign=top;spacingLeft=4;spacingRight=4;overflow=hidden;rotatable=0;points=[[0,0.5],[1,0.5]];portConstraint=eastwest;" parent="zkfFHV4jXpPFQw0GAbJ--6" vertex="1">
          <mxGeometry y="164" width="280" height="26" as="geometry" />
        </mxCell>
        <mxCell id="qUOKgKDQeOvGuODRQWnc-3" value="+InsertCoaches(): Task" style="text;align=left;verticalAlign=top;spacingLeft=4;spacingRight=4;overflow=hidden;rotatable=0;points=[[0,0.5],[1,0.5]];portConstraint=eastwest;" parent="zkfFHV4jXpPFQw0GAbJ--6" vertex="1">
          <mxGeometry y="190" width="280" height="26" as="geometry" />
        </mxCell>
        <mxCell id="qUOKgKDQeOvGuODRQWnc-2" value="-InsertCoach(coachName: string, yearsCoached: int, teamID: int): Task&lt;int&gt;" style="text;align=left;verticalAlign=top;spacingLeft=4;spacingRight=4;overflow=hidden;rotatable=0;points=[[0,0.5],[1,0.5]];portConstraint=eastwest;" parent="zkfFHV4jXpPFQw0GAbJ--6" vertex="1">
          <mxGeometry y="216" width="280" height="26" as="geometry" />
        </mxCell>
        <mxCell id="qUOKgKDQeOvGuODRQWnc-4" value="-InsertSchool(schoolName: string): Task" style="text;align=left;verticalAlign=top;spacingLeft=4;spacingRight=4;overflow=hidden;rotatable=0;points=[[0,0.5],[1,0.5]];portConstraint=eastwest;" parent="zkfFHV4jXpPFQw0GAbJ--6" vertex="1">
          <mxGeometry y="242" width="280" height="26" as="geometry" />
        </mxCell>
        <mxCell id="qUOKgKDQeOvGuODRQWnc-5" value="-SchoolExists(schoolName: string): Task&lt;bool&gt;" style="text;align=left;verticalAlign=top;spacingLeft=4;spacingRight=4;overflow=hidden;rotatable=0;points=[[0,0.5],[1,0.5]];portConstraint=eastwest;" parent="zkfFHV4jXpPFQw0GAbJ--6" vertex="1">
          <mxGeometry y="268" width="280" height="26" as="geometry" />
        </mxCell>
        <mxCell id="qUOKgKDQeOvGuODRQWnc-6" value="-SportExists(sportName: string): Task&lt;bool&gt;" style="text;align=left;verticalAlign=top;spacingLeft=4;spacingRight=4;overflow=hidden;rotatable=0;points=[[0,0.5],[1,0.5]];portConstraint=eastwest;" parent="zkfFHV4jXpPFQw0GAbJ--6" vertex="1">
          <mxGeometry y="294" width="280" height="26" as="geometry" />
        </mxCell>
        <mxCell id="qUOKgKDQeOvGuODRQWnc-7" value="-InsertTeam(team: Team): Task" style="text;align=left;verticalAlign=top;spacingLeft=4;spacingRight=4;overflow=hidden;rotatable=0;points=[[0,0.5],[1,0.5]];portConstraint=eastwest;" parent="zkfFHV4jXpPFQw0GAbJ--6" vertex="1">
          <mxGeometry y="320" width="280" height="26" as="geometry" />
        </mxCell>
        <mxCell id="qUOKgKDQeOvGuODRQWnc-8" value="-TeamExists(schoolName: string): Task&lt;bool&gt;" style="text;align=left;verticalAlign=top;spacingLeft=4;spacingRight=4;overflow=hidden;rotatable=0;points=[[0,0.5],[1,0.5]];portConstraint=eastwest;" parent="zkfFHV4jXpPFQw0GAbJ--6" vertex="1">
          <mxGeometry y="346" width="280" height="26" as="geometry" />
        </mxCell>
        <mxCell id="qUOKgKDQeOvGuODRQWnc-9" value="-PlayerExists(name: string, position: string, hometown): Task&lt;bool&gt;" style="text;align=left;verticalAlign=top;spacingLeft=4;spacingRight=4;overflow=hidden;rotatable=0;points=[[0,0.5],[1,0.5]];portConstraint=eastwest;" parent="zkfFHV4jXpPFQw0GAbJ--6" vertex="1">
          <mxGeometry y="372" width="280" height="26" as="geometry" />
        </mxCell>
        <mxCell id="qUOKgKDQeOvGuODRQWnc-10" value="-CheckIfDataExists(tableName: string): Task&lt;bool&gt;" style="text;align=left;verticalAlign=top;spacingLeft=4;spacingRight=4;overflow=hidden;rotatable=0;points=[[0,0.5],[1,0.5]];portConstraint=eastwest;" parent="zkfFHV4jXpPFQw0GAbJ--6" vertex="1">
          <mxGeometry y="398" width="280" height="26" as="geometry" />
        </mxCell>
        <mxCell id="qUOKgKDQeOvGuODRQWnc-11" value="GetCoaches" style="swimlane;fontStyle=0;align=center;verticalAlign=top;childLayout=stackLayout;horizontal=1;startSize=26;horizontalStack=0;resizeParent=1;resizeLast=0;collapsible=1;marginBottom=0;rounded=0;shadow=0;strokeWidth=1;fillColor=#ffe6cc;strokeColor=#d79b00;" parent="WIyWlLk6GJQsqaUBKTNV-1" vertex="1">
          <mxGeometry x="469" y="210" width="290" height="120" as="geometry">
            <mxRectangle x="550" y="140" width="160" height="26" as="alternateBounds" />
          </mxGeometry>
        </mxCell>
        <mxCell id="qUOKgKDQeOvGuODRQWnc-12" value="CoachesAndYearsAndTeamID: Dictionary&lt;string, (int, int)&gt;" style="text;align=left;verticalAlign=top;spacingLeft=4;spacingRight=4;overflow=hidden;rotatable=0;points=[[0,0.5],[1,0.5]];portConstraint=eastwest;" parent="qUOKgKDQeOvGuODRQWnc-11" vertex="1">
          <mxGeometry y="26" width="290" height="26" as="geometry" />
        </mxCell>
        <mxCell id="qUOKgKDQeOvGuODRQWnc-17" value="" style="line;html=1;strokeWidth=1;align=left;verticalAlign=middle;spacingTop=-1;spacingLeft=3;spacingRight=3;rotatable=0;labelPosition=right;points=[];portConstraint=eastwest;" parent="qUOKgKDQeOvGuODRQWnc-11" vertex="1">
          <mxGeometry y="52" width="290" height="8" as="geometry" />
        </mxCell>
        <mxCell id="qUOKgKDQeOvGuODRQWnc-13" value="+GetCoachNames(): List&lt;string&gt;" style="text;align=left;verticalAlign=top;spacingLeft=4;spacingRight=4;overflow=hidden;rotatable=0;points=[[0,0.5],[1,0.5]];portConstraint=eastwest;rounded=0;shadow=0;html=0;" parent="qUOKgKDQeOvGuODRQWnc-11" vertex="1">
          <mxGeometry y="60" width="290" height="26" as="geometry" />
        </mxCell>
        <mxCell id="qUOKgKDQeOvGuODRQWnc-20" value="+GetCoachesYears(): List&lt;string&gt;" style="text;align=left;verticalAlign=top;spacingLeft=4;spacingRight=4;overflow=hidden;rotatable=0;points=[[0,0.5],[1,0.5]];portConstraint=eastwest;rounded=0;shadow=0;html=0;" parent="qUOKgKDQeOvGuODRQWnc-11" vertex="1">
          <mxGeometry y="86" width="290" height="26" as="geometry" />
        </mxCell>
        <mxCell id="qUOKgKDQeOvGuODRQWnc-21" value="GetConferences" style="swimlane;fontStyle=0;align=center;verticalAlign=top;childLayout=stackLayout;horizontal=1;startSize=26;horizontalStack=0;resizeParent=1;resizeLast=0;collapsible=1;marginBottom=0;rounded=0;shadow=0;strokeWidth=1;fillColor=#ffe6cc;strokeColor=#d79b00;" parent="WIyWlLk6GJQsqaUBKTNV-1" vertex="1">
          <mxGeometry x="469" y="380" width="300" height="120" as="geometry">
            <mxRectangle x="550" y="140" width="160" height="26" as="alternateBounds" />
          </mxGeometry>
        </mxCell>
        <mxCell id="qUOKgKDQeOvGuODRQWnc-22" value="ConferenceNamesAndAbv: Dictionary&lt;string, string&gt;" style="text;align=left;verticalAlign=top;spacingLeft=4;spacingRight=4;overflow=hidden;rotatable=0;points=[[0,0.5],[1,0.5]];portConstraint=eastwest;" parent="qUOKgKDQeOvGuODRQWnc-21" vertex="1">
          <mxGeometry y="26" width="300" height="26" as="geometry" />
        </mxCell>
        <mxCell id="qUOKgKDQeOvGuODRQWnc-23" value="" style="line;html=1;strokeWidth=1;align=left;verticalAlign=middle;spacingTop=-1;spacingLeft=3;spacingRight=3;rotatable=0;labelPosition=right;points=[];portConstraint=eastwest;" parent="qUOKgKDQeOvGuODRQWnc-21" vertex="1">
          <mxGeometry y="52" width="300" height="8" as="geometry" />
        </mxCell>
        <mxCell id="qUOKgKDQeOvGuODRQWnc-24" value="+GetConferenceNames(): List&lt;string&gt;" style="text;align=left;verticalAlign=top;spacingLeft=4;spacingRight=4;overflow=hidden;rotatable=0;points=[[0,0.5],[1,0.5]];portConstraint=eastwest;rounded=0;shadow=0;html=0;" parent="qUOKgKDQeOvGuODRQWnc-21" vertex="1">
          <mxGeometry y="60" width="300" height="26" as="geometry" />
        </mxCell>
        <mxCell id="qUOKgKDQeOvGuODRQWnc-25" value="+GetConferenceShortNames(): List&lt;string&gt;" style="text;align=left;verticalAlign=top;spacingLeft=4;spacingRight=4;overflow=hidden;rotatable=0;points=[[0,0.5],[1,0.5]];portConstraint=eastwest;rounded=0;shadow=0;html=0;" parent="qUOKgKDQeOvGuODRQWnc-21" vertex="1">
          <mxGeometry y="86" width="300" height="26" as="geometry" />
        </mxCell>
        <mxCell id="qUOKgKDQeOvGuODRQWnc-26" value="BasketballAPI" style="rounded=0;whiteSpace=wrap;html=1;fillColor=#ffe6cc;strokeColor=#d79b00;" parent="WIyWlLk6GJQsqaUBKTNV-1" vertex="1">
          <mxGeometry x="279" y="30" width="210" height="80" as="geometry" />
        </mxCell>
        <mxCell id="qUOKgKDQeOvGuODRQWnc-27" value="" style="endArrow=open;endFill=1;endSize=12;html=1;rounded=0;entryX=0.25;entryY=1;entryDx=0;entryDy=0;exitX=0.5;exitY=0;exitDx=0;exitDy=0;edgeStyle=orthogonalEdgeStyle;" parent="WIyWlLk6GJQsqaUBKTNV-1" source="zkfFHV4jXpPFQw0GAbJ--6" target="qUOKgKDQeOvGuODRQWnc-26" edge="1">
          <mxGeometry width="160" relative="1" as="geometry">
            <mxPoint x="-21" y="140" as="sourcePoint" />
            <mxPoint x="139" y="140" as="targetPoint" />
          </mxGeometry>
        </mxCell>
        <mxCell id="qUOKgKDQeOvGuODRQWnc-28" value="" style="endArrow=open;endFill=1;endSize=12;html=1;rounded=0;exitX=0.5;exitY=0;exitDx=0;exitDy=0;edgeStyle=orthogonalEdgeStyle;entryX=0.5;entryY=1;entryDx=0;entryDy=0;" parent="WIyWlLk6GJQsqaUBKTNV-1" source="qUOKgKDQeOvGuODRQWnc-11" target="qUOKgKDQeOvGuODRQWnc-26" edge="1">
          <mxGeometry width="160" relative="1" as="geometry">
            <mxPoint x="589" y="120" as="sourcePoint" />
            <mxPoint x="749" y="120" as="targetPoint" />
          </mxGeometry>
        </mxCell>
        <mxCell id="qUOKgKDQeOvGuODRQWnc-29" value="" style="endArrow=none;endFill=0;endSize=12;html=1;rounded=0;exitX=0;exitY=0.5;exitDx=0;exitDy=0;edgeStyle=orthogonalEdgeStyle;" parent="WIyWlLk6GJQsqaUBKTNV-1" edge="1">
          <mxGeometry width="160" relative="1" as="geometry">
            <mxPoint x="464.75" y="424.2499999999998" as="sourcePoint" />
            <mxPoint x="385.25" y="115.25" as="targetPoint" />
          </mxGeometry>
        </mxCell>
        <mxCell id="qUOKgKDQeOvGuODRQWnc-30" value="EntityObject" style="swimlane;fontStyle=0;align=center;verticalAlign=top;childLayout=stackLayout;horizontal=1;startSize=26;horizontalStack=0;resizeParent=1;resizeLast=0;collapsible=1;marginBottom=0;rounded=0;shadow=0;strokeWidth=1;fillColor=#fff2cc;strokeColor=#d6b656;" parent="WIyWlLk6GJQsqaUBKTNV-1" vertex="1">
          <mxGeometry x="59" y="820" width="280" height="370" as="geometry">
            <mxRectangle x="130" y="380" width="160" height="26" as="alternateBounds" />
          </mxGeometry>
        </mxCell>
        <mxCell id="qUOKgKDQeOvGuODRQWnc-34" value="+IEntityObject: interface" style="text;align=left;verticalAlign=top;spacingLeft=4;spacingRight=4;overflow=hidden;rotatable=0;points=[[0,0.5],[1,0.5]];portConstraint=eastwest;fontStyle=0" parent="qUOKgKDQeOvGuODRQWnc-30" vertex="1">
          <mxGeometry y="26" width="280" height="26" as="geometry" />
        </mxCell>
        <mxCell id="qUOKgKDQeOvGuODRQWnc-35" value="+Import PlayersIntoTables(): Task" style="text;align=left;verticalAlign=top;spacingLeft=4;spacingRight=4;overflow=hidden;rotatable=0;points=[[0,0.5],[1,0.5]];portConstraint=eastwest;" parent="qUOKgKDQeOvGuODRQWnc-30" vertex="1">
          <mxGeometry y="52" width="280" height="26" as="geometry" />
        </mxCell>
        <mxCell id="qUOKgKDQeOvGuODRQWnc-36" value="+InsertConference(): Task" style="text;align=left;verticalAlign=top;spacingLeft=4;spacingRight=4;overflow=hidden;rotatable=0;points=[[0,0.5],[1,0.5]];portConstraint=eastwest;" parent="qUOKgKDQeOvGuODRQWnc-30" vertex="1">
          <mxGeometry y="78" width="280" height="26" as="geometry" />
        </mxCell>
        <mxCell id="qUOKgKDQeOvGuODRQWnc-37" value="-InsertConference(conferenceName: string): Task&lt;int&gt;" style="text;align=left;verticalAlign=top;spacingLeft=4;spacingRight=4;overflow=hidden;rotatable=0;points=[[0,0.5],[1,0.5]];portConstraint=eastwest;" parent="qUOKgKDQeOvGuODRQWnc-30" vertex="1">
          <mxGeometry y="104" width="280" height="26" as="geometry" />
        </mxCell>
        <mxCell id="qUOKgKDQeOvGuODRQWnc-38" value="+InsertCoaches(): Task" style="text;align=left;verticalAlign=top;spacingLeft=4;spacingRight=4;overflow=hidden;rotatable=0;points=[[0,0.5],[1,0.5]];portConstraint=eastwest;" parent="qUOKgKDQeOvGuODRQWnc-30" vertex="1">
          <mxGeometry y="130" width="280" height="26" as="geometry" />
        </mxCell>
        <mxCell id="qUOKgKDQeOvGuODRQWnc-39" value="-InsertCoach(coachName: string, yearsCoached: int, teamID: int): Task&lt;int&gt;" style="text;align=left;verticalAlign=top;spacingLeft=4;spacingRight=4;overflow=hidden;rotatable=0;points=[[0,0.5],[1,0.5]];portConstraint=eastwest;" parent="qUOKgKDQeOvGuODRQWnc-30" vertex="1">
          <mxGeometry y="156" width="280" height="26" as="geometry" />
        </mxCell>
        <mxCell id="qUOKgKDQeOvGuODRQWnc-40" value="-InsertSchool(schoolName: string): Task" style="text;align=left;verticalAlign=top;spacingLeft=4;spacingRight=4;overflow=hidden;rotatable=0;points=[[0,0.5],[1,0.5]];portConstraint=eastwest;" parent="qUOKgKDQeOvGuODRQWnc-30" vertex="1">
          <mxGeometry y="182" width="280" height="26" as="geometry" />
        </mxCell>
        <mxCell id="qUOKgKDQeOvGuODRQWnc-41" value="-SchoolExists(schoolName: string): Task&lt;bool&gt;" style="text;align=left;verticalAlign=top;spacingLeft=4;spacingRight=4;overflow=hidden;rotatable=0;points=[[0,0.5],[1,0.5]];portConstraint=eastwest;" parent="qUOKgKDQeOvGuODRQWnc-30" vertex="1">
          <mxGeometry y="208" width="280" height="26" as="geometry" />
        </mxCell>
        <mxCell id="qUOKgKDQeOvGuODRQWnc-42" value="-SportExists(sportName: string): Task&lt;bool&gt;" style="text;align=left;verticalAlign=top;spacingLeft=4;spacingRight=4;overflow=hidden;rotatable=0;points=[[0,0.5],[1,0.5]];portConstraint=eastwest;" parent="qUOKgKDQeOvGuODRQWnc-30" vertex="1">
          <mxGeometry y="234" width="280" height="26" as="geometry" />
        </mxCell>
        <mxCell id="qUOKgKDQeOvGuODRQWnc-43" value="-InsertTeam(team: Team): Task" style="text;align=left;verticalAlign=top;spacingLeft=4;spacingRight=4;overflow=hidden;rotatable=0;points=[[0,0.5],[1,0.5]];portConstraint=eastwest;" parent="qUOKgKDQeOvGuODRQWnc-30" vertex="1">
          <mxGeometry y="260" width="280" height="26" as="geometry" />
        </mxCell>
        <mxCell id="qUOKgKDQeOvGuODRQWnc-44" value="-TeamExists(schoolName: string): Task&lt;bool&gt;" style="text;align=left;verticalAlign=top;spacingLeft=4;spacingRight=4;overflow=hidden;rotatable=0;points=[[0,0.5],[1,0.5]];portConstraint=eastwest;" parent="qUOKgKDQeOvGuODRQWnc-30" vertex="1">
          <mxGeometry y="286" width="280" height="26" as="geometry" />
        </mxCell>
        <mxCell id="qUOKgKDQeOvGuODRQWnc-45" value="-PlayerExists(name: string, position: string, hometown): Task&lt;bool&gt;" style="text;align=left;verticalAlign=top;spacingLeft=4;spacingRight=4;overflow=hidden;rotatable=0;points=[[0,0.5],[1,0.5]];portConstraint=eastwest;" parent="qUOKgKDQeOvGuODRQWnc-30" vertex="1">
          <mxGeometry y="312" width="280" height="26" as="geometry" />
        </mxCell>
        <mxCell id="qUOKgKDQeOvGuODRQWnc-46" value="-CheckIfDataExists(tableName: string): Task&lt;bool&gt;" style="text;align=left;verticalAlign=top;spacingLeft=4;spacingRight=4;overflow=hidden;rotatable=0;points=[[0,0.5],[1,0.5]];portConstraint=eastwest;" parent="qUOKgKDQeOvGuODRQWnc-30" vertex="1">
          <mxGeometry y="338" width="280" height="26" as="geometry" />
        </mxCell>
        <mxCell id="qUOKgKDQeOvGuODRQWnc-47" value="&lt;p&gt;UserInterface&lt;/p&gt;" style="rounded=0;whiteSpace=wrap;html=1;fillColor=#fff2cc;strokeColor=#d6b656;" parent="WIyWlLk6GJQsqaUBKTNV-1" vertex="1">
          <mxGeometry x="319" y="710" width="210" height="80" as="geometry" />
        </mxCell>
        <mxCell id="qUOKgKDQeOvGuODRQWnc-53" value="&lt;p style=&quot;margin: 4px 0px 0px; text-align: center;&quot;&gt;&amp;lt;&amp;lt;interface&amp;gt;&amp;gt;&lt;/p&gt;&lt;p style=&quot;margin: 4px 0px 0px; text-align: center;&quot;&gt;IEntityObject&lt;/p&gt;&lt;hr&gt;&lt;p style=&quot;margin:0px;margin-left:8px;&quot;&gt;+GetID(): int&lt;/p&gt;&lt;p style=&quot;margin:0px;margin-left:8px;&quot;&gt;+ToString(): string&lt;/p&gt;" style="verticalAlign=top;align=left;overflow=fill;fontSize=12;fontFamily=Helvetica;html=1;whiteSpace=wrap;fillColor=#fff2cc;strokeColor=#d6b656;" parent="WIyWlLk6GJQsqaUBKTNV-1" vertex="1">
          <mxGeometry x="609" y="740" width="160" height="89" as="geometry" />
        </mxCell>
        <mxCell id="qUOKgKDQeOvGuODRQWnc-54" value="&lt;p style=&quot;margin:0px;margin-top:4px;text-align:center;text-decoration:underline;&quot;&gt;&lt;b&gt;StartObj:IEntityObject&lt;/b&gt;&lt;/p&gt;&lt;hr&gt;&lt;p style=&quot;margin:0px;margin-left:8px;&quot;&gt;+GetID(): int&lt;/p&gt;&lt;p style=&quot;margin:0px;margin-left:8px;&quot;&gt;+&amp;lt;&amp;lt;override&amp;gt;&amp;gt;ToString(): string&lt;/p&gt;" style="verticalAlign=top;align=left;overflow=fill;fontSize=12;fontFamily=Helvetica;html=1;whiteSpace=wrap;fillColor=#fff2cc;strokeColor=#d6b656;" parent="WIyWlLk6GJQsqaUBKTNV-1" vertex="1">
          <mxGeometry x="359" y="840" width="180" height="90" as="geometry" />
        </mxCell>
        <mxCell id="qUOKgKDQeOvGuODRQWnc-55" value="&lt;p style=&quot;margin:0px;margin-top:4px;text-align:center;text-decoration:underline;&quot;&gt;&lt;b&gt;SportObj:IEntityObject&lt;/b&gt;&lt;/p&gt;&lt;hr&gt;&lt;p style=&quot;margin:0px;margin-left:8px;&quot;&gt;+SportName&amp;lt;&amp;lt;get, set&amp;gt;&amp;gt;: string&lt;/p&gt;&lt;p style=&quot;margin:0px;margin-left:8px;&quot;&gt;+SportObj(SportName: string)&lt;/p&gt;&lt;p style=&quot;margin:0px;margin-left:8px;&quot;&gt;+GetID(): int&lt;/p&gt;&lt;p style=&quot;margin:0px;margin-left:8px;&quot;&gt;+&amp;lt;&amp;lt;override&amp;gt;&amp;gt;ToString(): string&lt;/p&gt;" style="verticalAlign=top;align=left;overflow=fill;fontSize=12;fontFamily=Helvetica;html=1;whiteSpace=wrap;fillColor=#fff2cc;strokeColor=#d6b656;" parent="WIyWlLk6GJQsqaUBKTNV-1" vertex="1">
          <mxGeometry x="349" y="950" width="200" height="120" as="geometry" />
        </mxCell>
        <mxCell id="qUOKgKDQeOvGuODRQWnc-61" value="+TeamObj:IEntityObject" style="swimlane;fontStyle=1;align=center;verticalAlign=top;childLayout=stackLayout;horizontal=1;startSize=26;horizontalStack=0;resizeParent=1;resizeLast=0;collapsible=1;marginBottom=0;rounded=0;shadow=0;strokeWidth=1;fillColor=#fff2cc;strokeColor=#d6b656;" parent="WIyWlLk6GJQsqaUBKTNV-1" vertex="1">
          <mxGeometry x="619" y="849" width="290" height="190" as="geometry">
            <mxRectangle x="550" y="140" width="160" height="26" as="alternateBounds" />
          </mxGeometry>
        </mxCell>
        <mxCell id="qUOKgKDQeOvGuODRQWnc-62" value="-_id: int" style="text;align=left;verticalAlign=top;spacingLeft=4;spacingRight=4;overflow=hidden;rotatable=0;points=[[0,0.5],[1,0.5]];portConstraint=eastwest;" parent="qUOKgKDQeOvGuODRQWnc-61" vertex="1">
          <mxGeometry y="26" width="290" height="26" as="geometry" />
        </mxCell>
        <mxCell id="qUOKgKDQeOvGuODRQWnc-66" value="+Schoolname &lt;&lt;get, set&gt;&gt;: string" style="text;align=left;verticalAlign=top;spacingLeft=4;spacingRight=4;overflow=hidden;rotatable=0;points=[[0,0.5],[1,0.5]];portConstraint=eastwest;" parent="qUOKgKDQeOvGuODRQWnc-61" vertex="1">
          <mxGeometry y="52" width="290" height="26" as="geometry" />
        </mxCell>
        <mxCell id="qUOKgKDQeOvGuODRQWnc-67" value="+TeamKey&lt;&lt;get,set&gt;&gt;: string" style="text;align=left;verticalAlign=top;spacingLeft=4;spacingRight=4;overflow=hidden;rotatable=0;points=[[0,0.5],[1,0.5]];portConstraint=eastwest;" parent="qUOKgKDQeOvGuODRQWnc-61" vertex="1">
          <mxGeometry y="78" width="290" height="26" as="geometry" />
        </mxCell>
        <mxCell id="qUOKgKDQeOvGuODRQWnc-63" value="" style="line;html=1;strokeWidth=1;align=left;verticalAlign=middle;spacingTop=-1;spacingLeft=3;spacingRight=3;rotatable=0;labelPosition=right;points=[];portConstraint=eastwest;" parent="qUOKgKDQeOvGuODRQWnc-61" vertex="1">
          <mxGeometry y="104" width="290" height="8" as="geometry" />
        </mxCell>
        <mxCell id="qUOKgKDQeOvGuODRQWnc-64" value="+TeamObj(id: int, SchoolName: string, TeamKey: string)" style="text;align=left;verticalAlign=top;spacingLeft=4;spacingRight=4;overflow=hidden;rotatable=0;points=[[0,0.5],[1,0.5]];portConstraint=eastwest;rounded=0;shadow=0;html=0;" parent="qUOKgKDQeOvGuODRQWnc-61" vertex="1">
          <mxGeometry y="112" width="290" height="26" as="geometry" />
        </mxCell>
        <mxCell id="qUOKgKDQeOvGuODRQWnc-65" value="+GetID(): int" style="text;align=left;verticalAlign=top;spacingLeft=4;spacingRight=4;overflow=hidden;rotatable=0;points=[[0,0.5],[1,0.5]];portConstraint=eastwest;rounded=0;shadow=0;html=0;" parent="qUOKgKDQeOvGuODRQWnc-61" vertex="1">
          <mxGeometry y="138" width="290" height="26" as="geometry" />
        </mxCell>
        <mxCell id="qUOKgKDQeOvGuODRQWnc-68" value="+ToString(): string" style="text;align=left;verticalAlign=top;spacingLeft=4;spacingRight=4;overflow=hidden;rotatable=0;points=[[0,0.5],[1,0.5]];portConstraint=eastwest;rounded=0;shadow=0;html=0;" parent="qUOKgKDQeOvGuODRQWnc-61" vertex="1">
          <mxGeometry y="164" width="290" height="26" as="geometry" />
        </mxCell>
        <mxCell id="qUOKgKDQeOvGuODRQWnc-69" value="+ConferenceObj:IEntityObject" style="swimlane;fontStyle=1;align=center;verticalAlign=top;childLayout=stackLayout;horizontal=1;startSize=26;horizontalStack=0;resizeParent=1;resizeLast=0;collapsible=1;marginBottom=0;rounded=0;shadow=0;strokeWidth=1;fillColor=#fff2cc;strokeColor=#d6b656;" parent="WIyWlLk6GJQsqaUBKTNV-1" vertex="1">
          <mxGeometry x="619" y="1065" width="290" height="190" as="geometry">
            <mxRectangle x="550" y="140" width="160" height="26" as="alternateBounds" />
          </mxGeometry>
        </mxCell>
        <mxCell id="qUOKgKDQeOvGuODRQWnc-70" value="-_id: int" style="text;align=left;verticalAlign=top;spacingLeft=4;spacingRight=4;overflow=hidden;rotatable=0;points=[[0,0.5],[1,0.5]];portConstraint=eastwest;" parent="qUOKgKDQeOvGuODRQWnc-69" vertex="1">
          <mxGeometry y="26" width="290" height="26" as="geometry" />
        </mxCell>
        <mxCell id="qUOKgKDQeOvGuODRQWnc-71" value="+Name&lt;&lt;get, set&gt;&gt;: string" style="text;align=left;verticalAlign=top;spacingLeft=4;spacingRight=4;overflow=hidden;rotatable=0;points=[[0,0.5],[1,0.5]];portConstraint=eastwest;" parent="qUOKgKDQeOvGuODRQWnc-69" vertex="1">
          <mxGeometry y="52" width="290" height="26" as="geometry" />
        </mxCell>
        <mxCell id="qUOKgKDQeOvGuODRQWnc-72" value="+ShortName&lt;&lt;get,set&gt;&gt;: string" style="text;align=left;verticalAlign=top;spacingLeft=4;spacingRight=4;overflow=hidden;rotatable=0;points=[[0,0.5],[1,0.5]];portConstraint=eastwest;" parent="qUOKgKDQeOvGuODRQWnc-69" vertex="1">
          <mxGeometry y="78" width="290" height="26" as="geometry" />
        </mxCell>
        <mxCell id="qUOKgKDQeOvGuODRQWnc-73" value="" style="line;html=1;strokeWidth=1;align=left;verticalAlign=middle;spacingTop=-1;spacingLeft=3;spacingRight=3;rotatable=0;labelPosition=right;points=[];portConstraint=eastwest;" parent="qUOKgKDQeOvGuODRQWnc-69" vertex="1">
          <mxGeometry y="104" width="290" height="8" as="geometry" />
        </mxCell>
        <mxCell id="qUOKgKDQeOvGuODRQWnc-74" value="+ConferenceObj(id: int, name: string, shortName: string)" style="text;align=left;verticalAlign=top;spacingLeft=4;spacingRight=4;overflow=hidden;rotatable=0;points=[[0,0.5],[1,0.5]];portConstraint=eastwest;rounded=0;shadow=0;html=0;" parent="qUOKgKDQeOvGuODRQWnc-69" vertex="1">
          <mxGeometry y="112" width="290" height="26" as="geometry" />
        </mxCell>
        <mxCell id="qUOKgKDQeOvGuODRQWnc-75" value="+GetID(): int" style="text;align=left;verticalAlign=top;spacingLeft=4;spacingRight=4;overflow=hidden;rotatable=0;points=[[0,0.5],[1,0.5]];portConstraint=eastwest;rounded=0;shadow=0;html=0;" parent="qUOKgKDQeOvGuODRQWnc-69" vertex="1">
          <mxGeometry y="138" width="290" height="26" as="geometry" />
        </mxCell>
        <mxCell id="qUOKgKDQeOvGuODRQWnc-76" value="+ToString(): string" style="text;align=left;verticalAlign=top;spacingLeft=4;spacingRight=4;overflow=hidden;rotatable=0;points=[[0,0.5],[1,0.5]];portConstraint=eastwest;rounded=0;shadow=0;html=0;" parent="qUOKgKDQeOvGuODRQWnc-69" vertex="1">
          <mxGeometry y="164" width="290" height="26" as="geometry" />
        </mxCell>
        <mxCell id="qUOKgKDQeOvGuODRQWnc-77" value="+PlayerObj:IEntityObject" style="swimlane;fontStyle=1;align=center;verticalAlign=top;childLayout=stackLayout;horizontal=1;startSize=26;horizontalStack=0;resizeParent=1;resizeLast=0;collapsible=1;marginBottom=0;rounded=0;shadow=0;strokeWidth=1;fillColor=#fff2cc;strokeColor=#d6b656;" parent="WIyWlLk6GJQsqaUBKTNV-1" vertex="1">
          <mxGeometry x="700" y="1280" width="180" height="164" as="geometry">
            <mxRectangle x="550" y="140" width="160" height="26" as="alternateBounds" />
          </mxGeometry>
        </mxCell>
        <mxCell id="qUOKgKDQeOvGuODRQWnc-78" value="-_id: int" style="text;align=left;verticalAlign=top;spacingLeft=4;spacingRight=4;overflow=hidden;rotatable=0;points=[[0,0.5],[1,0.5]];portConstraint=eastwest;" parent="qUOKgKDQeOvGuODRQWnc-77" vertex="1">
          <mxGeometry y="26" width="180" height="26" as="geometry" />
        </mxCell>
        <mxCell id="qUOKgKDQeOvGuODRQWnc-79" value="+Name&lt;&lt;get, set&gt;&gt;: string" style="text;align=left;verticalAlign=top;spacingLeft=4;spacingRight=4;overflow=hidden;rotatable=0;points=[[0,0.5],[1,0.5]];portConstraint=eastwest;" parent="qUOKgKDQeOvGuODRQWnc-77" vertex="1">
          <mxGeometry y="52" width="180" height="26" as="geometry" />
        </mxCell>
        <mxCell id="qUOKgKDQeOvGuODRQWnc-81" value="" style="line;html=1;strokeWidth=1;align=left;verticalAlign=middle;spacingTop=-1;spacingLeft=3;spacingRight=3;rotatable=0;labelPosition=right;points=[];portConstraint=eastwest;" parent="qUOKgKDQeOvGuODRQWnc-77" vertex="1">
          <mxGeometry y="78" width="180" height="8" as="geometry" />
        </mxCell>
        <mxCell id="qUOKgKDQeOvGuODRQWnc-82" value="+PlayerObj(id: int, name: string)" style="text;align=left;verticalAlign=top;spacingLeft=4;spacingRight=4;overflow=hidden;rotatable=0;points=[[0,0.5],[1,0.5]];portConstraint=eastwest;rounded=0;shadow=0;html=0;" parent="qUOKgKDQeOvGuODRQWnc-77" vertex="1">
          <mxGeometry y="86" width="180" height="26" as="geometry" />
        </mxCell>
        <mxCell id="qUOKgKDQeOvGuODRQWnc-83" value="+GetID(): int" style="text;align=left;verticalAlign=top;spacingLeft=4;spacingRight=4;overflow=hidden;rotatable=0;points=[[0,0.5],[1,0.5]];portConstraint=eastwest;rounded=0;shadow=0;html=0;" parent="qUOKgKDQeOvGuODRQWnc-77" vertex="1">
          <mxGeometry y="112" width="180" height="26" as="geometry" />
        </mxCell>
        <mxCell id="qUOKgKDQeOvGuODRQWnc-84" value="+ToString(): string" style="text;align=left;verticalAlign=top;spacingLeft=4;spacingRight=4;overflow=hidden;rotatable=0;points=[[0,0.5],[1,0.5]];portConstraint=eastwest;rounded=0;shadow=0;html=0;" parent="qUOKgKDQeOvGuODRQWnc-77" vertex="1">
          <mxGeometry y="138" width="180" height="26" as="geometry" />
        </mxCell>
        <mxCell id="qUOKgKDQeOvGuODRQWnc-85" value="+CoachObj:IEntityObject" style="swimlane;fontStyle=1;align=center;verticalAlign=top;childLayout=stackLayout;horizontal=1;startSize=26;horizontalStack=0;resizeParent=1;resizeLast=0;collapsible=1;marginBottom=0;rounded=0;shadow=0;strokeWidth=1;fillColor=#fff2cc;strokeColor=#d6b656;" parent="WIyWlLk6GJQsqaUBKTNV-1" vertex="1">
          <mxGeometry x="700" y="1630" width="180" height="164" as="geometry">
            <mxRectangle x="550" y="140" width="160" height="26" as="alternateBounds" />
          </mxGeometry>
        </mxCell>
        <mxCell id="qUOKgKDQeOvGuODRQWnc-86" value="-_id: int" style="text;align=left;verticalAlign=top;spacingLeft=4;spacingRight=4;overflow=hidden;rotatable=0;points=[[0,0.5],[1,0.5]];portConstraint=eastwest;" parent="qUOKgKDQeOvGuODRQWnc-85" vertex="1">
          <mxGeometry y="26" width="180" height="26" as="geometry" />
        </mxCell>
        <mxCell id="qUOKgKDQeOvGuODRQWnc-87" value="+Name&lt;&lt;get, set&gt;&gt;: string" style="text;align=left;verticalAlign=top;spacingLeft=4;spacingRight=4;overflow=hidden;rotatable=0;points=[[0,0.5],[1,0.5]];portConstraint=eastwest;" parent="qUOKgKDQeOvGuODRQWnc-85" vertex="1">
          <mxGeometry y="52" width="180" height="26" as="geometry" />
        </mxCell>
        <mxCell id="qUOKgKDQeOvGuODRQWnc-88" value="" style="line;html=1;strokeWidth=1;align=left;verticalAlign=middle;spacingTop=-1;spacingLeft=3;spacingRight=3;rotatable=0;labelPosition=right;points=[];portConstraint=eastwest;" parent="qUOKgKDQeOvGuODRQWnc-85" vertex="1">
          <mxGeometry y="78" width="180" height="8" as="geometry" />
        </mxCell>
        <mxCell id="qUOKgKDQeOvGuODRQWnc-89" value="+CoachObj(id: int, name: string)" style="text;align=left;verticalAlign=top;spacingLeft=4;spacingRight=4;overflow=hidden;rotatable=0;points=[[0,0.5],[1,0.5]];portConstraint=eastwest;rounded=0;shadow=0;html=0;" parent="qUOKgKDQeOvGuODRQWnc-85" vertex="1">
          <mxGeometry y="86" width="180" height="26" as="geometry" />
        </mxCell>
        <mxCell id="qUOKgKDQeOvGuODRQWnc-90" value="+GetID(): int" style="text;align=left;verticalAlign=top;spacingLeft=4;spacingRight=4;overflow=hidden;rotatable=0;points=[[0,0.5],[1,0.5]];portConstraint=eastwest;rounded=0;shadow=0;html=0;" parent="qUOKgKDQeOvGuODRQWnc-85" vertex="1">
          <mxGeometry y="112" width="180" height="26" as="geometry" />
        </mxCell>
        <mxCell id="qUOKgKDQeOvGuODRQWnc-91" value="+ToString(): string" style="text;align=left;verticalAlign=top;spacingLeft=4;spacingRight=4;overflow=hidden;rotatable=0;points=[[0,0.5],[1,0.5]];portConstraint=eastwest;rounded=0;shadow=0;html=0;" parent="qUOKgKDQeOvGuODRQWnc-85" vertex="1">
          <mxGeometry y="138" width="180" height="26" as="geometry" />
        </mxCell>
        <mxCell id="qUOKgKDQeOvGuODRQWnc-92" value="+PosObj:IEntityObject" style="swimlane;fontStyle=1;align=center;verticalAlign=top;childLayout=stackLayout;horizontal=1;startSize=26;horizontalStack=0;resizeParent=1;resizeLast=0;collapsible=1;marginBottom=0;rounded=0;shadow=0;strokeWidth=1;fillColor=#fff2cc;strokeColor=#d6b656;" parent="WIyWlLk6GJQsqaUBKTNV-1" vertex="1">
          <mxGeometry x="700" y="1470" width="180" height="140" as="geometry">
            <mxRectangle x="550" y="140" width="160" height="26" as="alternateBounds" />
          </mxGeometry>
        </mxCell>
        <mxCell id="qUOKgKDQeOvGuODRQWnc-93" value="-_position:string" style="text;align=left;verticalAlign=top;spacingLeft=4;spacingRight=4;overflow=hidden;rotatable=0;points=[[0,0.5],[1,0.5]];portConstraint=eastwest;" parent="qUOKgKDQeOvGuODRQWnc-92" vertex="1">
          <mxGeometry y="26" width="180" height="26" as="geometry" />
        </mxCell>
        <mxCell id="qUOKgKDQeOvGuODRQWnc-95" value="" style="line;html=1;strokeWidth=1;align=left;verticalAlign=middle;spacingTop=-1;spacingLeft=3;spacingRight=3;rotatable=0;labelPosition=right;points=[];portConstraint=eastwest;" parent="qUOKgKDQeOvGuODRQWnc-92" vertex="1">
          <mxGeometry y="52" width="180" height="8" as="geometry" />
        </mxCell>
        <mxCell id="qUOKgKDQeOvGuODRQWnc-96" value="+PosObj(position: string)" style="text;align=left;verticalAlign=top;spacingLeft=4;spacingRight=4;overflow=hidden;rotatable=0;points=[[0,0.5],[1,0.5]];portConstraint=eastwest;rounded=0;shadow=0;html=0;" parent="qUOKgKDQeOvGuODRQWnc-92" vertex="1">
          <mxGeometry y="60" width="180" height="26" as="geometry" />
        </mxCell>
        <mxCell id="qUOKgKDQeOvGuODRQWnc-97" value="+GetID(): int" style="text;align=left;verticalAlign=top;spacingLeft=4;spacingRight=4;overflow=hidden;rotatable=0;points=[[0,0.5],[1,0.5]];portConstraint=eastwest;rounded=0;shadow=0;html=0;" parent="qUOKgKDQeOvGuODRQWnc-92" vertex="1">
          <mxGeometry y="86" width="180" height="26" as="geometry" />
        </mxCell>
        <mxCell id="qUOKgKDQeOvGuODRQWnc-98" value="+ToString(): string" style="text;align=left;verticalAlign=top;spacingLeft=4;spacingRight=4;overflow=hidden;rotatable=0;points=[[0,0.5],[1,0.5]];portConstraint=eastwest;rounded=0;shadow=0;html=0;" parent="qUOKgKDQeOvGuODRQWnc-92" vertex="1">
          <mxGeometry y="112" width="180" height="26" as="geometry" />
        </mxCell>
        <mxCell id="qUOKgKDQeOvGuODRQWnc-99" value="" style="endArrow=diamondThin;endFill=1;endSize=24;html=1;rounded=0;entryX=0.5;entryY=1;entryDx=0;entryDy=0;exitX=0.008;exitY=0.08;exitDx=0;exitDy=0;exitPerimeter=0;edgeStyle=orthogonalEdgeStyle;startArrow=classic;startFill=1;" parent="WIyWlLk6GJQsqaUBKTNV-1" source="qUOKgKDQeOvGuODRQWnc-82" target="qUOKgKDQeOvGuODRQWnc-30" edge="1">
          <mxGeometry width="160" relative="1" as="geometry">
            <mxPoint x="549" y="1310" as="sourcePoint" />
            <mxPoint x="289" y="1260" as="targetPoint" />
          </mxGeometry>
        </mxCell>
        <mxCell id="qUOKgKDQeOvGuODRQWnc-100" value="" style="endArrow=classic;html=1;rounded=0;edgeStyle=orthogonalEdgeStyle;exitX=0;exitY=0.5;exitDx=0;exitDy=0;entryX=0.5;entryY=1;entryDx=0;entryDy=0;startArrow=classic;startFill=1;endFill=1;" parent="WIyWlLk6GJQsqaUBKTNV-1" source="qUOKgKDQeOvGuODRQWnc-97" target="qUOKgKDQeOvGuODRQWnc-55" edge="1">
          <mxGeometry width="50" height="50" relative="1" as="geometry">
            <mxPoint x="459" y="1450" as="sourcePoint" />
            <mxPoint x="409" y="1360" as="targetPoint" />
            <Array as="points">
              <mxPoint x="510" y="1569" />
              <mxPoint x="510" y="1100" />
              <mxPoint x="449" y="1100" />
            </Array>
          </mxGeometry>
        </mxCell>
        <mxCell id="qUOKgKDQeOvGuODRQWnc-101" value="" style="endArrow=classic;html=1;rounded=0;edgeStyle=orthogonalEdgeStyle;startArrow=classic;startFill=1;endFill=1;entryX=1;entryY=0.5;entryDx=0;entryDy=0;exitX=0;exitY=0.5;exitDx=0;exitDy=0;" parent="WIyWlLk6GJQsqaUBKTNV-1" source="qUOKgKDQeOvGuODRQWnc-90" edge="1">
          <mxGeometry width="50" height="50" relative="1" as="geometry">
            <mxPoint x="579" y="1370" as="sourcePoint" />
            <mxPoint x="539" y="880.04" as="targetPoint" />
            <Array as="points">
              <mxPoint x="579" y="1755" />
              <mxPoint x="579" y="880" />
            </Array>
          </mxGeometry>
        </mxCell>
        <mxCell id="qUOKgKDQeOvGuODRQWnc-102" value="" style="endArrow=classic;html=1;rounded=0;entryX=0;entryY=0.5;entryDx=0;entryDy=0;" parent="WIyWlLk6GJQsqaUBKTNV-1" target="qUOKgKDQeOvGuODRQWnc-66" edge="1">
          <mxGeometry width="50" height="50" relative="1" as="geometry">
            <mxPoint x="579" y="914" as="sourcePoint" />
            <mxPoint x="529" y="1100" as="targetPoint" />
          </mxGeometry>
        </mxCell>
        <mxCell id="qUOKgKDQeOvGuODRQWnc-103" value="" style="endArrow=classic;html=1;rounded=0;entryX=0;entryY=0.5;entryDx=0;entryDy=0;" parent="WIyWlLk6GJQsqaUBKTNV-1" target="qUOKgKDQeOvGuODRQWnc-72" edge="1">
          <mxGeometry width="50" height="50" relative="1" as="geometry">
            <mxPoint x="579" y="1156" as="sourcePoint" />
            <mxPoint x="549" y="1150" as="targetPoint" />
          </mxGeometry>
        </mxCell>
        <mxCell id="qUOKgKDQeOvGuODRQWnc-104" value="" style="endArrow=classic;html=1;rounded=0;entryX=0;entryY=0.5;entryDx=0;entryDy=0;edgeStyle=orthogonalEdgeStyle;" parent="WIyWlLk6GJQsqaUBKTNV-1" target="qUOKgKDQeOvGuODRQWnc-53" edge="1">
          <mxGeometry width="50" height="50" relative="1" as="geometry">
            <mxPoint x="579" y="880" as="sourcePoint" />
            <mxPoint x="609" y="690" as="targetPoint" />
            <Array as="points">
              <mxPoint x="579" y="784" />
            </Array>
          </mxGeometry>
        </mxCell>
        <mxCell id="qUOKgKDQeOvGuODRQWnc-105" value="&amp;lt;&amp;lt;enum&amp;gt;&amp;gt;&lt;br&gt;GUIStates" style="swimlane;fontStyle=0;childLayout=stackLayout;horizontal=1;startSize=26;fillColor=#fff2cc;horizontalStack=0;resizeParent=1;resizeParentMax=0;resizeLast=0;collapsible=1;marginBottom=0;whiteSpace=wrap;html=1;strokeColor=#d6b656;" parent="WIyWlLk6GJQsqaUBKTNV-1" vertex="1">
          <mxGeometry x="50" y="1230" width="121" height="130" as="geometry" />
        </mxCell>
        <mxCell id="qUOKgKDQeOvGuODRQWnc-106" value="Sportview" style="text;strokeColor=none;fillColor=none;align=left;verticalAlign=top;spacingLeft=4;spacingRight=4;overflow=hidden;rotatable=0;points=[[0,0.5],[1,0.5]];portConstraint=eastwest;whiteSpace=wrap;html=1;" parent="qUOKgKDQeOvGuODRQWnc-105" vertex="1">
          <mxGeometry y="26" width="121" height="26" as="geometry" />
        </mxCell>
        <mxCell id="qUOKgKDQeOvGuODRQWnc-107" value="TeamView" style="text;strokeColor=none;fillColor=none;align=left;verticalAlign=top;spacingLeft=4;spacingRight=4;overflow=hidden;rotatable=0;points=[[0,0.5],[1,0.5]];portConstraint=eastwest;whiteSpace=wrap;html=1;" parent="qUOKgKDQeOvGuODRQWnc-105" vertex="1">
          <mxGeometry y="52" width="121" height="26" as="geometry" />
        </mxCell>
        <mxCell id="qUOKgKDQeOvGuODRQWnc-108" value="PlayerView" style="text;strokeColor=none;fillColor=none;align=left;verticalAlign=top;spacingLeft=4;spacingRight=4;overflow=hidden;rotatable=0;points=[[0,0.5],[1,0.5]];portConstraint=eastwest;whiteSpace=wrap;html=1;" parent="qUOKgKDQeOvGuODRQWnc-105" vertex="1">
          <mxGeometry y="78" width="121" height="26" as="geometry" />
        </mxCell>
        <mxCell id="qUOKgKDQeOvGuODRQWnc-109" value="PlayerInfoView" style="text;strokeColor=none;fillColor=none;align=left;verticalAlign=top;spacingLeft=4;spacingRight=4;overflow=hidden;rotatable=0;points=[[0,0.5],[1,0.5]];portConstraint=eastwest;whiteSpace=wrap;html=1;" parent="qUOKgKDQeOvGuODRQWnc-105" vertex="1">
          <mxGeometry y="104" width="121" height="26" as="geometry" />
        </mxCell>
        <mxCell id="qUOKgKDQeOvGuODRQWnc-110" value="RecordNotFoundException" style="swimlane;fontStyle=0;childLayout=stackLayout;horizontal=1;startSize=26;fillColor=#fff2cc;horizontalStack=0;resizeParent=1;resizeParentMax=0;resizeLast=0;collapsible=1;marginBottom=0;whiteSpace=wrap;html=1;strokeColor=#d6b656;" parent="WIyWlLk6GJQsqaUBKTNV-1" vertex="1">
          <mxGeometry x="20" y="1400" width="339" height="90" as="geometry" />
        </mxCell>
        <mxCell id="qUOKgKDQeOvGuODRQWnc-111" value="+RecordNotFoundException(key: string)" style="text;strokeColor=none;fillColor=none;align=left;verticalAlign=top;spacingLeft=4;spacingRight=4;overflow=hidden;rotatable=0;points=[[0,0.5],[1,0.5]];portConstraint=eastwest;whiteSpace=wrap;html=1;" parent="qUOKgKDQeOvGuODRQWnc-110" vertex="1">
          <mxGeometry y="26" width="339" height="24" as="geometry" />
        </mxCell>
        <mxCell id="qUOKgKDQeOvGuODRQWnc-112" value="#RecordNotFoundException(serializationInfo: SerializationInfo, streamingContext: StreamingContext" style="text;strokeColor=none;fillColor=none;align=left;verticalAlign=top;spacingLeft=4;spacingRight=4;overflow=hidden;rotatable=0;points=[[0,0.5],[1,0.5]];portConstraint=eastwest;whiteSpace=wrap;html=1;" parent="qUOKgKDQeOvGuODRQWnc-110" vertex="1">
          <mxGeometry y="50" width="339" height="40" as="geometry" />
        </mxCell>
        <mxCell id="TTFt8rw5mVhYc-jdpISA-0" value="SportsDBUI" style="swimlane;fontStyle=0;align=center;verticalAlign=top;childLayout=stackLayout;horizontal=1;startSize=26;horizontalStack=0;resizeParent=1;resizeLast=0;collapsible=1;marginBottom=0;rounded=0;shadow=0;strokeWidth=1;fillColor=#fff2cc;strokeColor=#d6b656;" vertex="1" parent="WIyWlLk6GJQsqaUBKTNV-1">
          <mxGeometry x="80" y="1510" width="426" height="520" as="geometry">
            <mxRectangle x="130" y="380" width="160" height="26" as="alternateBounds" />
          </mxGeometry>
        </mxCell>
        <mxCell id="TTFt8rw5mVhYc-jdpISA-1" value="-_currState: GUIStates" style="text;align=left;verticalAlign=top;spacingLeft=4;spacingRight=4;overflow=hidden;rotatable=0;points=[[0,0.5],[1,0.5]];portConstraint=eastwest;fontStyle=0" vertex="1" parent="TTFt8rw5mVhYc-jdpISA-0">
          <mxGeometry y="26" width="426" height="26" as="geometry" />
        </mxCell>
        <mxCell id="TTFt8rw5mVhYc-jdpISA-2" value="-_connStr: string" style="text;align=left;verticalAlign=top;spacingLeft=4;spacingRight=4;overflow=hidden;rotatable=0;points=[[0,0.5],[1,0.5]];portConstraint=eastwest;" vertex="1" parent="TTFt8rw5mVhYc-jdpISA-0">
          <mxGeometry y="52" width="426" height="26" as="geometry" />
        </mxCell>
        <mxCell id="TTFt8rw5mVhYc-jdpISA-3" value="-_treeStack: Stack&lt;ValueTuple&lt;GuiStates,SqlScript, IEntityObject&gt;&gt;" style="text;align=left;verticalAlign=top;spacingLeft=4;spacingRight=4;overflow=hidden;rotatable=0;points=[[0,0.5],[1,0.5]];portConstraint=eastwest;" vertex="1" parent="TTFt8rw5mVhYc-jdpISA-0">
          <mxGeometry y="78" width="426" height="26" as="geometry" />
        </mxCell>
        <mxCell id="TTFt8rw5mVhYc-jdpISA-4" value="-_entityList: IList&lt;IEntityObject&gt;" style="text;align=left;verticalAlign=top;spacingLeft=4;spacingRight=4;overflow=hidden;rotatable=0;points=[[0,0.5],[1,0.5]];portConstraint=eastwest;" vertex="1" parent="TTFt8rw5mVhYc-jdpISA-0">
          <mxGeometry y="104" width="426" height="26" as="geometry" />
        </mxCell>
        <mxCell id="TTFt8rw5mVhYc-jdpISA-5" value="-_curScript: SqlScript" style="text;align=left;verticalAlign=top;spacingLeft=4;spacingRight=4;overflow=hidden;rotatable=0;points=[[0,0.5],[1,0.5]];portConstraint=eastwest;" vertex="1" parent="TTFt8rw5mVhYc-jdpISA-0">
          <mxGeometry y="130" width="426" height="26" as="geometry" />
        </mxCell>
        <mxCell id="TTFt8rw5mVhYc-jdpISA-6" value="+SportsDBUI(conStr: string)" style="text;align=left;verticalAlign=top;spacingLeft=4;spacingRight=4;overflow=hidden;rotatable=0;points=[[0,0.5],[1,0.5]];portConstraint=eastwest;" vertex="1" parent="TTFt8rw5mVhYc-jdpISA-0">
          <mxGeometry y="156" width="426" height="26" as="geometry" />
        </mxCell>
        <mxCell id="TTFt8rw5mVhYc-jdpISA-7" value="-uxSearchButton_Click(sender: object, e: EventArgs): void" style="text;align=left;verticalAlign=top;spacingLeft=4;spacingRight=4;overflow=hidden;rotatable=0;points=[[0,0.5],[1,0.5]];portConstraint=eastwest;" vertex="1" parent="TTFt8rw5mVhYc-jdpISA-0">
          <mxGeometry y="182" width="426" height="26" as="geometry" />
        </mxCell>
        <mxCell id="TTFt8rw5mVhYc-jdpISA-8" value="+UpdateUI(): void" style="text;align=left;verticalAlign=top;spacingLeft=4;spacingRight=4;overflow=hidden;rotatable=0;points=[[0,0.5],[1,0.5]];portConstraint=eastwest;" vertex="1" parent="TTFt8rw5mVhYc-jdpISA-0">
          <mxGeometry y="208" width="426" height="26" as="geometry" />
        </mxCell>
        <mxCell id="TTFt8rw5mVhYc-jdpISA-9" value="-QueryForData(objID: int, data:string, tblName: string, nonID: bool): string?" style="text;align=left;verticalAlign=top;spacingLeft=4;spacingRight=4;overflow=hidden;rotatable=0;points=[[0,0.5],[1,0.5]];portConstraint=eastwest;" vertex="1" parent="TTFt8rw5mVhYc-jdpISA-0">
          <mxGeometry y="234" width="426" height="26" as="geometry" />
        </mxCell>
        <mxCell id="TTFt8rw5mVhYc-jdpISA-14" value="-uxForwardBtn_Click(sender: object, e: EventArgs): void" style="text;align=left;verticalAlign=top;spacingLeft=4;spacingRight=4;overflow=hidden;rotatable=0;points=[[0,0.5],[1,0.5]];portConstraint=eastwest;" vertex="1" parent="TTFt8rw5mVhYc-jdpISA-0">
          <mxGeometry y="260" width="426" height="26" as="geometry" />
        </mxCell>
        <mxCell id="TTFt8rw5mVhYc-jdpISA-15" value="-uxBackwardBtn_Click(sender: object, e: EventArgs): void" style="text;align=left;verticalAlign=top;spacingLeft=4;spacingRight=4;overflow=hidden;rotatable=0;points=[[0,0.5],[1,0.5]];portConstraint=eastwest;" vertex="1" parent="TTFt8rw5mVhYc-jdpISA-0">
          <mxGeometry y="286" width="426" height="26" as="geometry" />
        </mxCell>
        <mxCell id="TTFt8rw5mVhYc-jdpISA-10" value="-GetDBTableItems(scriptObj:SqlScript, entry:string): IList&lt;IEntityObject&gt;" style="text;align=left;verticalAlign=top;spacingLeft=4;spacingRight=4;overflow=hidden;rotatable=0;points=[[0,0.5],[1,0.5]];portConstraint=eastwest;" vertex="1" parent="TTFt8rw5mVhYc-jdpISA-0">
          <mxGeometry y="312" width="426" height="26" as="geometry" />
        </mxCell>
        <mxCell id="TTFt8rw5mVhYc-jdpISA-16" value="-GetDBTableItems(script: string, entry:string): IList&lt;IEntityObject&gt;" style="text;align=left;verticalAlign=top;spacingLeft=4;spacingRight=4;overflow=hidden;rotatable=0;points=[[0,0.5],[1,0.5]];portConstraint=eastwest;" vertex="1" parent="TTFt8rw5mVhYc-jdpISA-0">
          <mxGeometry y="338" width="426" height="26" as="geometry" />
        </mxCell>
        <mxCell id="TTFt8rw5mVhYc-jdpISA-11" value="-MakeDTFromQuery(script: string)" style="text;align=left;verticalAlign=top;spacingLeft=4;spacingRight=4;overflow=hidden;rotatable=0;points=[[0,0.5],[1,0.5]];portConstraint=eastwest;" vertex="1" parent="TTFt8rw5mVhYc-jdpISA-0">
          <mxGeometry y="364" width="426" height="26" as="geometry" />
        </mxCell>
        <mxCell id="TTFt8rw5mVhYc-jdpISA-12" value="-GetTeamViewFilterObjects(): List&lt;IEntityObject&gt;" style="text;align=left;verticalAlign=top;spacingLeft=4;spacingRight=4;overflow=hidden;rotatable=0;points=[[0,0.5],[1,0.5]];portConstraint=eastwest;" vertex="1" parent="TTFt8rw5mVhYc-jdpISA-0">
          <mxGeometry y="390" width="426" height="26" as="geometry" />
        </mxCell>
        <mxCell id="TTFt8rw5mVhYc-jdpISA-13" value="-GetPlayerViewFilterObjects(teamKey: string): List&lt;IEntityObject&gt;" style="text;align=left;verticalAlign=top;spacingLeft=4;spacingRight=4;overflow=hidden;rotatable=0;points=[[0,0.5],[1,0.5]];portConstraint=eastwest;" vertex="1" parent="TTFt8rw5mVhYc-jdpISA-0">
          <mxGeometry y="416" width="426" height="26" as="geometry" />
        </mxCell>
        <mxCell id="TTFt8rw5mVhYc-jdpISA-18" value="-uxSetFilterBtn_Click(sender: object, e: EventArgs): void" style="text;align=left;verticalAlign=top;spacingLeft=4;spacingRight=4;overflow=hidden;rotatable=0;points=[[0,0.5],[1,0.5]];portConstraint=eastwest;" vertex="1" parent="TTFt8rw5mVhYc-jdpISA-0">
          <mxGeometry y="442" width="426" height="26" as="geometry" />
        </mxCell>
        <mxCell id="TTFt8rw5mVhYc-jdpISA-37" value="-AddFilterToScript(filterID: string, nonID: bool): string" style="text;align=left;verticalAlign=top;spacingLeft=4;spacingRight=4;overflow=hidden;rotatable=0;points=[[0,0.5],[1,0.5]];portConstraint=eastwest;" vertex="1" parent="TTFt8rw5mVhYc-jdpISA-0">
          <mxGeometry y="468" width="426" height="26" as="geometry" />
        </mxCell>
        <mxCell id="TTFt8rw5mVhYc-jdpISA-38" value="-uxUpdateInfo_Click(sender: object, e: EventArgs)" style="text;align=left;verticalAlign=top;spacingLeft=4;spacingRight=4;overflow=hidden;rotatable=0;points=[[0,0.5],[1,0.5]];portConstraint=eastwest;" vertex="1" parent="TTFt8rw5mVhYc-jdpISA-0">
          <mxGeometry y="494" width="426" height="26" as="geometry" />
        </mxCell>
        <mxCell id="TTFt8rw5mVhYc-jdpISA-41" value="" style="line;strokeWidth=1;fillColor=none;align=left;verticalAlign=middle;spacingTop=-1;spacingLeft=3;spacingRight=3;rotatable=0;labelPosition=right;points=[];portConstraint=eastwest;strokeColor=inherit;" vertex="1" parent="WIyWlLk6GJQsqaUBKTNV-1">
          <mxGeometry x="80" y="1665" width="426" height="8" as="geometry" />
        </mxCell>
        <mxCell id="TTFt8rw5mVhYc-jdpISA-42" value="" style="endArrow=none;endFill=0;endSize=12;html=1;rounded=0;edgeStyle=orthogonalEdgeStyle;startArrow=classic;startFill=1;exitX=0;exitY=0.5;exitDx=0;exitDy=0;" edge="1" parent="WIyWlLk6GJQsqaUBKTNV-1" source="qUOKgKDQeOvGuODRQWnc-34">
          <mxGeometry width="160" relative="1" as="geometry">
            <mxPoint y="890" as="sourcePoint" />
            <mxPoint x="80" y="1600" as="targetPoint" />
            <Array as="points">
              <mxPoint x="-60" y="860" />
              <mxPoint x="-60" y="1600" />
            </Array>
          </mxGeometry>
        </mxCell>
        <mxCell id="TTFt8rw5mVhYc-jdpISA-43" value="HAS_A" style="edgeLabel;html=1;align=center;verticalAlign=middle;resizable=0;points=[];" vertex="1" connectable="0" parent="TTFt8rw5mVhYc-jdpISA-42">
          <mxGeometry x="-0.1166" y="1" relative="1" as="geometry">
            <mxPoint as="offset" />
          </mxGeometry>
        </mxCell>
        <mxCell id="TTFt8rw5mVhYc-jdpISA-44" value="" style="endArrow=block;dashed=1;endFill=0;endSize=12;html=1;rounded=0;entryX=0;entryY=0.5;entryDx=0;entryDy=0;edgeStyle=orthogonalEdgeStyle;exitX=0;exitY=0.5;exitDx=0;exitDy=0;" edge="1" parent="WIyWlLk6GJQsqaUBKTNV-1" source="TTFt8rw5mVhYc-jdpISA-1" target="qUOKgKDQeOvGuODRQWnc-108">
          <mxGeometry width="160" relative="1" as="geometry">
            <mxPoint x="-280" y="1390" as="sourcePoint" />
            <mxPoint x="-120" y="1390" as="targetPoint" />
            <Array as="points">
              <mxPoint x="-10" y="1549" />
              <mxPoint x="-10" y="1321" />
            </Array>
          </mxGeometry>
        </mxCell>
        <mxCell id="TTFt8rw5mVhYc-jdpISA-45" value="IMPLEMENTS" style="edgeLabel;html=1;align=center;verticalAlign=middle;resizable=0;points=[];" vertex="1" connectable="0" parent="TTFt8rw5mVhYc-jdpISA-44">
          <mxGeometry x="0.344" y="-3" relative="1" as="geometry">
            <mxPoint y="-1" as="offset" />
          </mxGeometry>
        </mxCell>
        <mxCell id="TTFt8rw5mVhYc-jdpISA-46" value="SqlScript" style="swimlane;fontStyle=0;align=center;verticalAlign=top;childLayout=stackLayout;horizontal=1;startSize=26;horizontalStack=0;resizeParent=1;resizeLast=0;collapsible=1;marginBottom=0;rounded=0;shadow=0;strokeWidth=1;fillColor=#fff2cc;strokeColor=#d6b656;" vertex="1" parent="WIyWlLk6GJQsqaUBKTNV-1">
          <mxGeometry x="599" y="1820" width="281" height="216" as="geometry">
            <mxRectangle x="550" y="140" width="160" height="26" as="alternateBounds" />
          </mxGeometry>
        </mxCell>
        <mxCell id="TTFt8rw5mVhYc-jdpISA-47" value="+Schema:string" style="text;align=left;verticalAlign=top;spacingLeft=4;spacingRight=4;overflow=hidden;rotatable=0;points=[[0,0.5],[1,0.5]];portConstraint=eastwest;" vertex="1" parent="TTFt8rw5mVhYc-jdpISA-46">
          <mxGeometry y="26" width="281" height="26" as="geometry" />
        </mxCell>
        <mxCell id="TTFt8rw5mVhYc-jdpISA-48" value="+SelectCol: string?" style="text;align=left;verticalAlign=top;spacingLeft=4;spacingRight=4;overflow=hidden;rotatable=0;points=[[0,0.5],[1,0.5]];portConstraint=eastwest;" vertex="1" parent="TTFt8rw5mVhYc-jdpISA-46">
          <mxGeometry y="52" width="281" height="26" as="geometry" />
        </mxCell>
        <mxCell id="TTFt8rw5mVhYc-jdpISA-50" value="+JoinTableLines: List&lt;string&gt; &lt;&lt;get, set&gt;&gt;" style="text;align=left;verticalAlign=top;spacingLeft=4;spacingRight=4;overflow=hidden;rotatable=0;points=[[0,0.5],[1,0.5]];portConstraint=eastwest;rounded=0;shadow=0;html=0;" vertex="1" parent="TTFt8rw5mVhYc-jdpISA-46">
          <mxGeometry y="78" width="281" height="26" as="geometry" />
        </mxCell>
        <mxCell id="TTFt8rw5mVhYc-jdpISA-53" value="+WhereClauseLines: List&lt;string&gt; &lt;&lt;get, set&gt;&gt;" style="text;align=left;verticalAlign=top;spacingLeft=4;spacingRight=4;overflow=hidden;rotatable=0;points=[[0,0.5],[1,0.5]];portConstraint=eastwest;rounded=0;shadow=0;html=0;" vertex="1" parent="TTFt8rw5mVhYc-jdpISA-46">
          <mxGeometry y="104" width="281" height="26" as="geometry" />
        </mxCell>
        <mxCell id="TTFt8rw5mVhYc-jdpISA-49" value="" style="line;html=1;strokeWidth=1;align=left;verticalAlign=middle;spacingTop=-1;spacingLeft=3;spacingRight=3;rotatable=0;labelPosition=right;points=[];portConstraint=eastwest;" vertex="1" parent="TTFt8rw5mVhYc-jdpISA-46">
          <mxGeometry y="130" width="281" height="8" as="geometry" />
        </mxCell>
        <mxCell id="TTFt8rw5mVhYc-jdpISA-51" value="+SqlScript()" style="text;align=left;verticalAlign=top;spacingLeft=4;spacingRight=4;overflow=hidden;rotatable=0;points=[[0,0.5],[1,0.5]];portConstraint=eastwest;rounded=0;shadow=0;html=0;" vertex="1" parent="TTFt8rw5mVhYc-jdpISA-46">
          <mxGeometry y="138" width="281" height="26" as="geometry" />
        </mxCell>
        <mxCell id="TTFt8rw5mVhYc-jdpISA-52" value="+SqlScript(tblName; string, colName: string" style="text;align=left;verticalAlign=top;spacingLeft=4;spacingRight=4;overflow=hidden;rotatable=0;points=[[0,0.5],[1,0.5]];portConstraint=eastwest;rounded=0;shadow=0;html=0;" vertex="1" parent="TTFt8rw5mVhYc-jdpISA-46">
          <mxGeometry y="164" width="281" height="26" as="geometry" />
        </mxCell>
        <mxCell id="TTFt8rw5mVhYc-jdpISA-54" value="+ResetScript(): void" style="text;align=left;verticalAlign=top;spacingLeft=4;spacingRight=4;overflow=hidden;rotatable=0;points=[[0,0.5],[1,0.5]];portConstraint=eastwest;rounded=0;shadow=0;html=0;" vertex="1" parent="TTFt8rw5mVhYc-jdpISA-46">
          <mxGeometry y="190" width="281" height="26" as="geometry" />
        </mxCell>
        <mxCell id="TTFt8rw5mVhYc-jdpISA-55" value="" style="endArrow=open;endFill=1;endSize=12;html=1;rounded=0;entryX=0;entryY=0.5;entryDx=0;entryDy=0;exitX=1;exitY=0.5;exitDx=0;exitDy=0;" edge="1" parent="WIyWlLk6GJQsqaUBKTNV-1" source="TTFt8rw5mVhYc-jdpISA-12" target="TTFt8rw5mVhYc-jdpISA-50">
          <mxGeometry width="160" relative="1" as="geometry">
            <mxPoint x="500" y="1900" as="sourcePoint" />
            <mxPoint x="660" y="1900" as="targetPoint" />
          </mxGeometry>
        </mxCell>
        <mxCell id="TTFt8rw5mVhYc-jdpISA-56" value="HAS_A" style="edgeLabel;html=1;align=center;verticalAlign=middle;resizable=0;points=[];" vertex="1" connectable="0" parent="TTFt8rw5mVhYc-jdpISA-55">
          <mxGeometry x="-0.3135" y="-4" relative="1" as="geometry">
            <mxPoint as="offset" />
          </mxGeometry>
        </mxCell>
        <mxCell id="TTFt8rw5mVhYc-jdpISA-57" value="UpdatePlayerData" style="swimlane;fontStyle=0;align=center;verticalAlign=top;childLayout=stackLayout;horizontal=1;startSize=26;horizontalStack=0;resizeParent=1;resizeLast=0;collapsible=1;marginBottom=0;rounded=0;shadow=0;strokeWidth=1;fillColor=#fff2cc;strokeColor=#d6b656;" vertex="1" parent="WIyWlLk6GJQsqaUBKTNV-1">
          <mxGeometry x="90" y="2070" width="281" height="195" as="geometry">
            <mxRectangle x="550" y="140" width="160" height="26" as="alternateBounds" />
          </mxGeometry>
        </mxCell>
        <mxCell id="TTFt8rw5mVhYc-jdpISA-58" value="-_connStr: string" style="text;align=left;verticalAlign=top;spacingLeft=4;spacingRight=4;overflow=hidden;rotatable=0;points=[[0,0.5],[1,0.5]];portConstraint=eastwest;" vertex="1" parent="TTFt8rw5mVhYc-jdpISA-57">
          <mxGeometry y="26" width="281" height="26" as="geometry" />
        </mxCell>
        <mxCell id="TTFt8rw5mVhYc-jdpISA-59" value="-_playerID: int" style="text;align=left;verticalAlign=top;spacingLeft=4;spacingRight=4;overflow=hidden;rotatable=0;points=[[0,0.5],[1,0.5]];portConstraint=eastwest;" vertex="1" parent="TTFt8rw5mVhYc-jdpISA-57">
          <mxGeometry y="52" width="281" height="26" as="geometry" />
        </mxCell>
        <mxCell id="TTFt8rw5mVhYc-jdpISA-62" value="" style="line;html=1;strokeWidth=1;align=left;verticalAlign=middle;spacingTop=-1;spacingLeft=3;spacingRight=3;rotatable=0;labelPosition=right;points=[];portConstraint=eastwest;" vertex="1" parent="TTFt8rw5mVhYc-jdpISA-57">
          <mxGeometry y="78" width="281" height="8" as="geometry" />
        </mxCell>
        <mxCell id="TTFt8rw5mVhYc-jdpISA-63" value="+UpdatePlayerData(playerId: int, connectionString: string)" style="text;align=left;verticalAlign=top;spacingLeft=4;spacingRight=4;overflow=hidden;rotatable=0;points=[[0,0.5],[1,0.5]];portConstraint=eastwest;rounded=0;shadow=0;html=0;" vertex="1" parent="TTFt8rw5mVhYc-jdpISA-57">
          <mxGeometry y="86" width="281" height="26" as="geometry" />
        </mxCell>
        <mxCell id="TTFt8rw5mVhYc-jdpISA-64" value="-GetPlayerInfo(): DataTable" style="text;align=left;verticalAlign=top;spacingLeft=4;spacingRight=4;overflow=hidden;rotatable=0;points=[[0,0.5],[1,0.5]];portConstraint=eastwest;rounded=0;shadow=0;html=0;" vertex="1" parent="TTFt8rw5mVhYc-jdpISA-57">
          <mxGeometry y="112" width="281" height="26" as="geometry" />
        </mxCell>
        <mxCell id="TTFt8rw5mVhYc-jdpISA-65" value="-uxOK_btn_Click(sender: object, e: EventArgs): void" style="text;align=left;verticalAlign=top;spacingLeft=4;spacingRight=4;overflow=hidden;rotatable=0;points=[[0,0.5],[1,0.5]];portConstraint=eastwest;rounded=0;shadow=0;html=0;" vertex="1" parent="TTFt8rw5mVhYc-jdpISA-57">
          <mxGeometry y="138" width="281" height="26" as="geometry" />
        </mxCell>
        <mxCell id="TTFt8rw5mVhYc-jdpISA-66" value="-uxCancel_btn_Click(sender: object, e: EventArgs): void" style="text;align=left;verticalAlign=top;spacingLeft=4;spacingRight=4;overflow=hidden;rotatable=0;points=[[0,0.5],[1,0.5]];portConstraint=eastwest;rounded=0;shadow=0;html=0;" vertex="1" parent="TTFt8rw5mVhYc-jdpISA-57">
          <mxGeometry y="164" width="281" height="26" as="geometry" />
        </mxCell>
      </root>
    </mxGraphModel>
  </diagram>
</mxfile>
